<svg xmlns="http://www.w3.org/2000/svg" viewBox="0 0 180.22 196.26"><defs><style>.cls-1{fill:#c1282a;}</style></defs><title>Asset 1</title><g id="Layer_2" data-name="Layer 2"><g id="Layer_1-2" data-name="Layer 1"><path class="cls-1" d="M152.57,81.73v-.48c10.43-5.34,20.86-17.71,20.86-36.87C173.43,16,151.12,0,120.08,0H93c-10.59.69-32.39,5.6-36,33.94l-5,39.94-6.68,56.37a45.53,45.53,0,0,0-24.59,7C2.5,148.5-5.16,169.25,3.67,183.61s30.8,16.86,49.07,5.62c12.74-7.83,20.3-20.28,20.74-32,4.38-35.38,9.72-83,12.68-109.76C88,31.27,97.7,27.61,103.7,26.92h16.13c14.07,0,21.35,9,21.35,21.34s-7.45,21.95-20.64,22.06h-4.72a12.66,12.66,0,0,0,0,25.31h9.28c14.13.83,22.38,11,22.38,24.66,0,14.55-8.73,25-24.24,25H107.3a13.44,13.44,0,1,0,0,26.88h2.34v0h11.17c32,0,59.41-15.52,59.41-50C180.22,104.77,171.25,87.31,152.57,81.73Z"/></g></g></svg>