<svg xmlns="http://www.w3.org/2000/svg" width="171.75" height="215.63" viewBox="0 0 171.75 215.63"><title>bejebeje-logo</title><path d="M295.87,238a65.28,65.28,0,0,1-2.78,18.91c-4.35,12.07-17.43,5.29-18.81,4.53l-.1-.05v0l-54.78-33a16.58,16.58,0,0,0-19.31,1.56L186.4,241.49a10.41,10.41,0,0,1-12.3.9h0L155,230.46a10.38,10.38,0,0,0-10.76-.17L131.06,238l0-.08s-6.62,3.07-7-5V153.55a61.36,61.36,0,1,1,119.29,20.23A65.52,65.52,0,0,1,295.87,238" transform="translate(-124.13 -92.19)" style="fill:#d6254d"/><path d="M273.66,276.93a8.61,8.61,0,0,1,1.15,13.51,65.28,65.28,0,0,1-42.05,17.34h-.47l-1.91,0h-8.72a4.57,4.57,0,0,1-4.49-5.5c1.2-5.81,2.9-13.71,4.07-19.06a7.28,7.28,0,0,0-4.31-8.28,13.2,13.2,0,0,1-8-10.39,142.15,142.15,0,0,1-.91-17.19A7.06,7.06,0,0,1,219,241.6s37.54,24.09,54.69,35.33" transform="translate(-124.13 -92.19)" style="fill:#d6254d"/><path d="M135.15,282.24s6.9-10,9.21-14.49a2.93,2.93,0,0,0-1.83-4.21h0a3.5,3.5,0,0,1-2.42-5l7.46-14.83a3.51,3.51,0,0,1,5-1.37l17.76,11.48a3.5,3.5,0,0,1,.37,5.61l-31,25.82c-2.68,2.27-5.59.34-4.55-3" transform="translate(-124.13 -92.19)" style="fill:#d6254d"/></svg>