<?xml version="1.0" standalone="no"?>
<!DOCTYPE svg PUBLIC "-//W3C//DTD SVG 20010904//EN"
 "http://www.w3.org/TR/2001/REC-SVG-20010904/DTD/svg10.dtd">
<svg version="1.0" xmlns="http://www.w3.org/2000/svg"
 width="1084.000000pt" height="1084.000000pt" viewBox="0 0 1084.000000 1084.000000"
 preserveAspectRatio="xMidYMid meet">
<metadata>
Created by potrace 1.11, written by Peter Selinger 2001-2013
</metadata>
<g transform="translate(0.000000,1084.000000) scale(0.100000,-0.100000)"
fill="#000000" stroke="none">
<path d="M4367 10024 c-1 -1 -40 -5 -87 -8 -47 -4 -94 -8 -105 -10 -11 -2 -45
-7 -75 -11 -30 -3 -71 -10 -90 -15 -19 -5 -48 -11 -65 -13 -47 -7 -211 -53
-309 -87 -711 -247 -1291 -798 -1571 -1495 -76 -189 -136 -414 -161 -600 -3
-27 -8 -57 -9 -66 -2 -9 -7 -61 -11 -115 -9 -131 -9 -3608 0 -3659 11 -57 41
-110 77 -136 37 -26 129 -35 182 -17 30 11 138 71 412 231 212 124 233 135
282 149 64 19 158 22 219 7 55 -13 185 -77 204 -100 3 -3 17 -12 31 -20 27
-14 110 -65 231 -141 244 -154 488 -306 518 -322 120 -65 284 -65 410 -1 46
24 256 194 466 380 6 6 31 26 55 47 24 20 82 68 128 107 99 83 216 144 321
167 100 21 239 21 315 0 33 -9 65 -18 70 -19 32 -8 159 -76 289 -156 81 -50
150 -91 153 -91 2 0 24 -13 48 -30 24 -16 46 -30 49 -30 3 0 25 -13 49 -30 25
-16 48 -30 53 -30 4 0 21 -11 38 -23 17 -13 36 -26 41 -28 6 -2 127 -75 270
-161 143 -86 424 -256 625 -377 769 -463 875 -526 929 -549 31 -14 65 -28 76
-33 93 -41 283 -57 375 -33 162 43 258 163 319 399 62 245 85 429 85 705 0
225 -14 365 -60 580 -32 154 -91 347 -144 475 -95 227 -292 556 -423 708 -296
344 -591 576 -948 746 -222 106 -397 167 -612 213 -34 8 -46 15 -43 24 37 98
101 364 112 467 4 34 8 65 10 68 16 27 23 401 10 539 -15 160 -50 353 -86 475
-11 39 -22 79 -25 89 -3 11 -23 70 -46 130 -99 264 -232 496 -418 731 -53 67
-273 294 -336 346 -264 219 -539 375 -860 487 -80 29 -318 89 -380 96 -27 4
-57 9 -65 11 -20 5 -90 13 -180 21 -69 6 -339 12 -343 8z"/>
<path d="M5666 3685 c-65 -25 -105 -55 -145 -109 -68 -91 -74 -152 -56 -541 7
-154 7 -162 19 -280 11 -101 15 -124 33 -185 42 -139 157 -270 295 -336 87
-42 99 -51 139 -95 63 -72 86 -171 64 -279 -2 -14 -7 -38 -10 -55 -7 -34 -25
-118 -54 -250 -11 -49 -22 -101 -25 -115 -2 -14 -21 -101 -40 -195 -45 -212
-47 -230 -35 -281 12 -45 37 -78 89 -114 l35 -25 305 0 c168 0 343 4 390 8
122 11 222 28 385 63 39 8 148 38 185 51 25 8 50 16 55 17 88 22 370 148 500
223 118 69 316 203 345 233 3 3 19 16 35 29 72 55 158 137 184 175 78 115 87
255 24 380 -34 67 -89 117 -224 204 -63 40 -168 109 -234 152 -179 117 -688
446 -1168 754 -233 151 -376 243 -497 321 -241 156 -375 238 -407 249 -52 18
-140 18 -187 1z"/>
<path d="M2953 3630 c-60 -27 -45 -3 -256 -424 -152 -305 -159 -321 -153 -364
9 -63 45 -107 106 -127 66 -22 100 -62 100 -120 0 -60 -57 -159 -295 -519 -62
-94 -114 -180 -115 -191 -6 -54 2 -79 33 -110 31 -31 39 -33 108 -27 16 2 41
20 134 97 26 22 80 66 119 99 39 32 85 70 101 85 17 14 53 44 80 66 28 21 61
49 75 62 14 12 68 57 120 100 52 43 109 90 125 104 17 15 156 131 310 258 322
267 350 292 363 329 14 42 7 107 -16 139 -15 21 -307 219 -469 318 -9 6 -68
44 -132 85 -197 128 -215 139 -258 148 -33 8 -49 6 -80 -8z"/>
</g>
</svg>
