<?xml version="1.0" standalone="no"?>
<!DOCTYPE svg PUBLIC "-//W3C//DTD SVG 20010904//EN"
 "http://www.w3.org/TR/2001/REC-SVG-20010904/DTD/svg10.dtd">
<svg version="1.0" xmlns="http://www.w3.org/2000/svg"
 width="258.000000pt" height="258.000000pt" viewBox="0 0 258.000000 258.000000"
 preserveAspectRatio="xMidYMid meet">
<metadata>
Created by potrace 1.11, written by Peter Selinger 2001-2013
</metadata>
<g transform="translate(0.000000,258.000000) scale(0.100000,-0.100000)"
fill="#000000" stroke="none">
<path d="M1205 2561 c-220 -63 -331 -217 -360 -501 -4 -36 -8 -72 -10 -80 -1
-8 -6 -42 -9 -75 -4 -33 -9 -67 -11 -75 -2 -8 -6 -46 -10 -83 -3 -37 -8 -77
-10 -89 -3 -11 -7 -44 -10 -72 -3 -28 -7 -64 -9 -81 -2 -16 -7 -59 -11 -95 -4
-36 -8 -72 -10 -80 -1 -8 -6 -46 -10 -83 -3 -37 -8 -76 -10 -85 -1 -9 -6 -44
-9 -77 -15 -137 -25 -208 -29 -211 -1 -1 -24 -4 -52 -7 -90 -11 -143 -26 -220
-65 -156 -78 -278 -226 -309 -376 -29 -134 2 -238 95 -328 123 -117 335 -130
537 -32 150 72 261 196 302 334 17 58 22 91 35 205 6 64 16 141 20 165 2 14 7
54 10 90 4 36 8 76 10 90 2 14 6 50 10 80 3 30 8 71 10 90 9 70 24 206 30 260
3 30 7 71 10 90 11 85 14 118 20 170 8 77 15 140 19 175 2 17 7 59 11 95 17
174 72 265 182 302 51 17 298 17 360 -1 108 -30 175 -123 179 -251 3 -94 -16
-156 -67 -214 -52 -59 -116 -85 -220 -89 -99 -4 -144 -23 -178 -72 -34 -51
-39 -113 -12 -169 33 -67 76 -90 176 -92 167 -5 235 -26 300 -92 119 -123 114
-372 -11 -481 -41 -36 -104 -67 -156 -75 -18 -3 -98 -6 -178 -7 -149 -1 -168
-5 -218 -48 -52 -45 -67 -143 -32 -211 23 -46 63 -76 116 -88 45 -10 304 -8
379 3 403 59 633 307 619 670 -9 219 -116 399 -285 480 -54 25 -67 36 -57 44
7 6 36 29 65 51 166 127 234 398 157 628 -59 177 -211 300 -438 357 -83 21
-114 23 -371 23 -236 0 -289 -2 -340 -17z"/>
</g>
</svg>
